<svg xmlns="http://www.w3.org/2000/svg" viewBox="0 0 276.24 47.83"><defs><style>.cls-1{fill:#3c4a89;}</style></defs><title>자산 1</title><g id="레이어_2" data-name="레이어 2"><g id="레이어_1-2" data-name="레이어 1"><path class="cls-1" d="M125.2,15.24a16.75,16.75,0,0,0-10.45,3.64V3a3,3,0,0,0-6.08,0V31.38a16.54,16.54,0,0,0,33.07,0,16.37,16.37,0,0,0-16.53-16.14Zm0,26.38A10.23,10.23,0,1,1,135.66,31.4,10.35,10.35,0,0,1,125.2,41.62ZM66.26,15.26a3,3,0,0,0-3,3v.65a16.71,16.71,0,0,0-10.45-3.64A16.37,16.37,0,0,0,36.23,31.4,16.37,16.37,0,0,0,52.77,47.56a16.7,16.7,0,0,0,10.45-3.65v.68a3,3,0,0,0,6.08,0V18.22a3,3,0,0,0-3-3ZM52.77,41.62A10.23,10.23,0,1,1,63.22,31.4,10.36,10.36,0,0,1,52.77,41.62ZM88.9,15.23A16.38,16.38,0,0,0,72.36,31.4h0c0,.09,0,.19,0,.29v12.9a3,3,0,0,0,6.08,0V31.68a1.32,1.32,0,0,0,0-.28h0a10.46,10.46,0,0,1,20.91,0h0c0,.09,0,.19,0,.29v12.9a3,3,0,0,0,6.08,0V31.68a1.32,1.32,0,0,0,0-.28h0A16.37,16.37,0,0,0,88.9,15.24Zm89,15.92V31a1.94,1.94,0,0,0,0-.34,16.54,16.54,0,0,0-33,.73,16.37,16.37,0,0,0,16.53,16.16,16.57,16.57,0,0,0,11.25-4.34,3,3,0,0,0,1.25-2.39,3,3,0,0,0-3-3,3.07,3.07,0,0,0-2.06.79v0a10.53,10.53,0,0,1-7.38,3,10.23,10.23,0,1,1,0-20.45,10.45,10.45,0,0,1,10,7.26H160.33a3,3,0,1,0,0,5.94h14.15a3.4,3.4,0,0,0,3.41-3h0v.81c0-.27,0-.56,0-.83,0-.06,0-.16,0-.23ZM30,0a3,3,0,0,0-3,3V18.88a16.71,16.71,0,0,0-10.45-3.64A16.37,16.37,0,0,0,0,31.4,16.37,16.37,0,0,0,16.54,47.56,16.37,16.37,0,0,0,33.07,31.4V3A3,3,0,0,0,30,0ZM16.54,41.62a10.23,10.23,0,1,1,0-20.45,10.23,10.23,0,1,1,0,20.45ZM214.16,31.15V31a1.94,1.94,0,0,0,0-.34,16.54,16.54,0,0,0-33,.73,16.37,16.37,0,0,0,16.53,16.16,16.57,16.57,0,0,0,11.25-4.34,3,3,0,0,0,1.25-2.39,3,3,0,0,0-3-3,3.06,3.06,0,0,0-2.05.79l0,0a10.5,10.5,0,0,1-7.38,3,10.23,10.23,0,1,1,0-20.45,10.45,10.45,0,0,1,10,7.26H196.56a3,3,0,1,0,0,5.94h14.15a3.41,3.41,0,0,0,3.41-3h0v.81c0-.27,0-.56,0-.83A.86.86,0,0,0,214.16,31.15Zm59-22.53a3,3,0,0,0,3-3,3,3,0,0,0-6.08,0A3,3,0,0,0,273.2,8.62Zm0,1.83a3,3,0,0,0-3,3V44.59a3,3,0,0,0,6.08,0V13.42A3,3,0,0,0,273.2,10.45Zm-24.78-5.2a3,3,0,0,0-1.6-1.74,3.34,3.34,0,0,0-1.11-.27h-.39a3.34,3.34,0,0,0-1.11.27,2.92,2.92,0,0,0-1.59,1.74L224.76,42.66a2.93,2.93,0,0,0,1.48,4,3.06,3.06,0,0,0,4-1.44l15.24-31.92,7.24,15.18h-8.47a3,3,0,1,0,0,5.94h11.33l5.15,10.8a3.07,3.07,0,0,0,4,1.44,3,3,0,0,0,1.49-4ZM218.05,41.89a3,3,0,1,0,3,3A3,3,0,0,0,218.05,41.89Z"/></g></g></svg>